<?xml version="1.0" standalone="no"?><!DOCTYPE svg PUBLIC "-//W3C//DTD SVG 1.1//EN" "http://www.w3.org/Graphics/SVG/1.1/DTD/svg11.dtd"><svg t="1563866385260" class="icon" viewBox="0 0 1024 1024" version="1.1" xmlns="http://www.w3.org/2000/svg" p-id="3147" xmlns:xlink="http://www.w3.org/1999/xlink" width="32" height="32"><defs><style type="text/css"></style></defs><path d="M814.656 127.872h-602.88c-46.016 0-83.456 37.44-83.456 83.456v602.944c0 46.016 37.44 83.456 83.456 83.456h602.88c46.08 0 83.52-37.44 83.52-83.456V211.328c-0.064-46.016-37.504-83.456-83.52-83.456z m45.12 490.624h-223.68c-35.648 0-64.576-28.992-64.576-64.64s28.992-64.576 64.576-64.576h223.616v129.216z m0-170.496v2.88h-223.68c-56.832 0-102.976 46.208-102.976 102.976 0 56.832 46.144 102.976 102.976 102.976h223.616v157.376c0 24.832-20.224 45.056-45.12 45.056h-602.88c-24.832 0-45.12-20.224-45.12-45.056V356.864c0-24.832 20.224-45.12 45.12-45.12h602.88c24.896 0 45.12 20.224 45.12 45.12V448z m0-159.552c-13.184-8.768-28.096-15.104-45.12-15.104h-602.88c-16.96 0-31.872 6.336-45.12 15.104v-77.12c0-24.832 20.224-45.12 45.12-45.12h602.88c24.896 0 45.12 20.224 45.12 45.12v77.12z" fill="#515151" p-id="3148"></path><path d="M612.608 553.344a0.49 0.49 0 1 0 62.72 0 0.49 0.49 0 1 0-62.72 0z" fill="#515151" p-id="3149"></path></svg>