<?xml version="1.0" standalone="no"?><!DOCTYPE svg PUBLIC "-//W3C//DTD SVG 1.1//EN" "http://www.w3.org/Graphics/SVG/1.1/DTD/svg11.dtd"><svg t="1563929130514" class="icon" viewBox="0 0 1024 1024" version="1.1" xmlns="http://www.w3.org/2000/svg" p-id="3083" xmlns:xlink="http://www.w3.org/1999/xlink" width="32" height="32"><defs><style type="text/css"></style></defs><path d="M618.666667 21.333333c-12.8 0-21.333333 8.533333-21.333334 21.333334s8.533333 21.333333 21.333334 21.333333h341.333333v341.333333c0 12.8 8.533333 21.333333 21.333333 21.333334s21.333333-8.533333 21.333334-21.333334V21.333333H618.666667zM42.666667 426.666667c12.8 0 21.333333-8.533333 21.333333-21.333334V64h341.333333c12.8 0 21.333333-8.533333 21.333334-21.333333s-8.533333-21.333333-21.333334-21.333334H21.333333v384c0 12.8 8.533333 21.333333 21.333334 21.333334zM981.333333 597.333333c-12.8 0-21.333333 8.533333-21.333333 21.333334v341.333333H618.666667c-12.8 0-21.333333 8.533333-21.333334 21.333333s8.533333 21.333333 21.333334 21.333334h384V618.666667c0-12.8-8.533333-21.333333-21.333334-21.333334zM405.333333 960H64V618.666667c0-12.8-8.533333-21.333333-21.333333-21.333334s-21.333333 8.533333-21.333334 21.333334v384h384c12.8 0 21.333333-8.533333 21.333334-21.333334s-8.533333-21.333333-21.333334-21.333333zM981.333333 490.666667H42.666667c-10.666667 0-21.333333 10.666667-21.333334 21.333333 0 12.8 10.666667 21.333333 21.333334 21.333333h938.666666c10.666667 0 21.333333-8.533333 21.333334-21.333333 0-10.666667-10.666667-21.333333-21.333334-21.333333z" fill="#515151" p-id="3084"></path></svg>