<?xml version="1.0" standalone="no"?><!DOCTYPE svg PUBLIC "-//W3C//DTD SVG 1.1//EN" "http://www.w3.org/Graphics/SVG/1.1/DTD/svg11.dtd"><svg t="1563866561455" class="icon" viewBox="0 0 1024 1024" version="1.1" xmlns="http://www.w3.org/2000/svg" p-id="5234" xmlns:xlink="http://www.w3.org/1999/xlink" width="32" height="32"><defs><style type="text/css"></style></defs><path d="M174.254 415.29c-15.74 0-28.5-12.76-28.5-28.5V237.808c0-55.722 45.333-101.054 101.054-101.054H388c15.74 0 28.5 12.76 28.5 28.5s-12.76 28.5-28.5 28.5H246.808c-24.292 0-44.054 19.763-44.054 44.054V386.79c0 15.74-12.76 28.5-28.5 28.5zM393.146 895.5H246.808c-55.722 0-101.054-45.333-101.054-101.055V654c0-15.74 12.76-28.5 28.5-28.5s28.5 12.76 28.5 28.5v140.445c0 24.292 19.763 44.055 44.054 44.055h146.338c15.74 0 28.5 12.76 28.5 28.5s-12.76 28.5-28.5 28.5z m398.018 0H614c-15.74 0-28.5-12.76-28.5-28.5s12.76-28.5 28.5-28.5h177.164c24.292 0 44.055-19.763 44.055-44.055V642.966c0-15.74 12.76-28.5 28.5-28.5s28.5 12.76 28.5 28.5v151.479c0 55.722-45.333 101.055-101.055 101.055z m72.555-490c-15.74 0-28.5-12.76-28.5-28.5V237.808c0-24.292-19.763-44.054-44.055-44.054H604c-15.74 0-28.5-12.76-28.5-28.5s12.76-28.5 28.5-28.5h187.164c55.722 0 101.055 45.333 101.055 101.054V377c0 15.74-12.76 28.5-28.5 28.5z m44.273 137.17H120.216c-15.74 0-28.5-12.761-28.5-28.5 0-15.74 12.76-28.5 28.5-28.5h787.776c15.74 0 28.5 12.76 28.5 28.5 0 15.739-12.76 28.5-28.5 28.5z" p-id="5235"></path></svg>