<?xml version="1.0" standalone="no"?><!DOCTYPE svg PUBLIC "-//W3C//DTD SVG 1.1//EN" "http://www.w3.org/Graphics/SVG/1.1/DTD/svg11.dtd"><svg t="1563936257023" class="icon" viewBox="0 0 1024 1024" version="1.1" xmlns="http://www.w3.org/2000/svg" p-id="5980" xmlns:xlink="http://www.w3.org/1999/xlink" width="32" height="32"><defs><style type="text/css"></style></defs><path d="M513.760136 840.654215c-149.110118 0-298.220237 0.025583-447.330355-0.01535-41.127827-0.010233-52.333343-11.819517-52.297527-52.937111 0.13815-182.3378 0.04605-364.680718 0.081867-547.018518 0.010233-45.850517 11.39995-57.316984 56.989517-57.316984 293.958047-0.025583 587.916095-0.0307 881.874142 0 40.263109 0.005117 55.915015 14.899755 56.196432 54.441413 0.368401 51.120692-0.393984 102.251616 0.353051 153.367191 0.250717 17.192025-5.428791 23.628801-23.199001 25.020537-53.111078 4.154739-88.53893 43.010763-89.705531 95.66134-1.094968 49.447539 34.685934 89.398531 86.937411 96.029741 17.652526 2.241103 26.765323 8.191795 26.187138 28.648259-1.442902 51.084875-0.281417 102.236266-0.537251 153.356958-0.189317 37.720122-13.328936 50.726708-50.777874 50.742058C810.271404 840.690031 662.01577 840.649098 513.760136 840.654215zM509.66168 817.905481c148.265867 0 296.531734-0.429801 444.787368 0.424684 24.626553 0.143267 33.330015-7.905262 32.424364-32.582981-1.560586-42.545146-1.432669-85.228442 0.0307-127.783821 0.644701-18.819128-5.694858-28.141708-23.685085-31.87688-43.532664-9.041163-69.376985-39.347224-83.652506-78.162314-23.741368-64.551961 15.89239-133.545196 87.505362-153.116474 16.521741-4.512907 19.775946-11.174816 19.576395-25.834088-0.588418-43.450797-1.371269-86.952761 0.235367-130.352391 0.936351-25.271254-9.864948-32.710898-33.109999-32.685315-294.822765 0.317234-589.64553 0.332584-884.468296-0.01535-23.679968-0.025583-32.823465 8.360646-32.716015 33.074182 0.793084 183.197402 0.874951 366.39992-0.102333 549.592205-0.133034 24.462819 8.432279 29.84556 30.940529 29.72276C214.833798 817.521731 362.250297 817.905481 509.66168 817.905481z" p-id="5981" fill="#2c2c2c"></path><path d="M188.288492 752.366002l23.664618 0 0 30.060461-23.664618 0 0-30.060461Z" p-id="5982" fill="#2c2c2c"></path><path d="M188.288492 657.70753l23.664618 0 0 56.923-23.664618 0 0-56.923Z" p-id="5983" fill="#2c2c2c"></path><path d="M188.288492 554.862379l23.664618 0 0 58.841753-23.664618 0 0-58.841753Z" p-id="5984" fill="#2c2c2c"></path><path d="M188.288492 452.017229l23.664618 0 0 55.004247-23.664618 0 0-55.004247Z" p-id="5985" fill="#2c2c2c"></path><path d="M188.288492 354.160835l23.664618 0 0 57.562584-23.664618 0 0-57.562584Z" p-id="5986" fill="#2c2c2c"></path><path d="M187.648908 285.085734l24.304202 0 0 26.862539-24.304202 0 0-26.862539Z" p-id="5987" fill="#2c2c2c"></path><path d="M734.365542 740.444151l23.664618 0 0 30.060461-23.664618 0 0-30.060461Z" p-id="5988" fill="#2c2c2c"></path><path d="M734.365542 645.785679l23.664618 0 0 56.923-23.664618 0 0-56.923Z" p-id="5989" fill="#2c2c2c"></path><path d="M734.365542 547.289702l23.664618 0 0 58.841753-23.664618 0 0-58.841753Z" p-id="5990" fill="#2c2c2c"></path><path d="M734.365542 448.793724l23.664618 0 0 55.004247-23.664618 0 0-55.004247Z" p-id="5991" fill="#2c2c2c"></path><path d="M734.365542 350.937331l23.664618 0 0 57.562584-23.664618 0 0-57.562584Z" p-id="5992" fill="#2c2c2c"></path><path d="M733.725958 281.86223l24.304202 0 0 26.862539-24.304202 0 0-26.862539Z" p-id="5993" fill="#2c2c2c"></path></svg>