<?xml version="1.0" standalone="no"?><!DOCTYPE svg PUBLIC "-//W3C//DTD SVG 1.1//EN" "http://www.w3.org/Graphics/SVG/1.1/DTD/svg11.dtd"><svg t="1563870043883" class="icon" viewBox="0 0 1024 1024" version="1.1" xmlns="http://www.w3.org/2000/svg" p-id="13707" xmlns:xlink="http://www.w3.org/1999/xlink" width="32" height="32"><defs><style type="text/css"></style></defs><path d="M816.64 71.68h-609.28c-48.128 0-87.04 38.912-87.04 87.04v707.072c0 48.128 38.912 87.04 87.04 87.04h609.28c48.128 0 87.04-38.912 87.04-87.04V158.72c0-48.128-39.424-87.04-87.04-87.04z m20.48 794.112c0 11.264-9.216 20.48-20.48 20.48h-609.28c-11.264 0-20.48-9.216-20.48-20.48V158.72c0-11.264 9.216-20.48 20.48-20.48h609.28c11.264 0 20.48 9.216 20.48 20.48v707.072z" fill="#3E3A39" p-id="13708"></path><path d="M716.8 704H307.2c-18.432 0-33.28 14.848-33.28 33.28s14.848 33.28 33.28 33.28h409.6c18.432 0 33.28-14.848 33.28-33.28s-14.848-33.28-33.28-33.28zM716.8 547.84H307.2c-18.432 0-33.28 14.848-33.28 33.28s14.848 33.28 33.28 33.28h409.6c18.432 0 33.28-14.848 33.28-33.28s-14.848-33.28-33.28-33.28z" fill="#3E3A39" p-id="13709"></path><path d="M412.672 389.12h198.144c18.432 0 33.28-14.848 33.28-33.28s-14.848-33.28-33.28-33.28H412.672c-18.432 0-33.28 14.848-33.28 33.28S394.24 389.12 412.672 389.12z" fill="#FA7268" p-id="13710"></path></svg>