<?xml version="1.0" standalone="no"?><!DOCTYPE svg PUBLIC "-//W3C//DTD SVG 1.1//EN" "http://www.w3.org/Graphics/SVG/1.1/DTD/svg11.dtd"><svg t="1564039351878" class="icon" viewBox="0 0 1024 1024" version="1.1" xmlns="http://www.w3.org/2000/svg" p-id="8674" xmlns:xlink="http://www.w3.org/1999/xlink" width="32" height="32"><defs><style type="text/css"></style></defs><path d="M444.3 447.3H23.2c-1.7 0-3-1.3-3-3V23.2c0-1.7 1.3-3 3-3h421.1c1.7 0 3 1.3 3 3v421.1c0 1.6-1.4 3-3 3z" fill="#FFFFFF" p-id="8675"></path><path d="M406.9 467.5H60.6C27.2 467.5 0 440.3 0 406.9V60.6C0 27.2 27.2 0 60.6 0h346.2c33.4 0 60.6 27.2 60.6 60.6v346.2c0.1 33.5-27.1 60.7-60.5 60.7zM60.6 40.4c-11.1 0-20.2 9.1-20.2 20.2v346.2c0 11.1 9.1 20.2 20.2 20.2h346.2c11.1 0 20.2-9.1 20.2-20.2V60.6c0-11.1-9.1-20.2-20.2-20.2H60.6z" fill="#403F3F" p-id="8676"></path><path d="M444.3 1003.8H23.2c-1.7 0-3-1.3-3-3V579.7c0-1.7 1.3-3 3-3h421.1c1.7 0 3 1.3 3 3v421.1c0 1.6-1.4 3-3 3z" fill="#33ABE3" p-id="8677"></path><path d="M406.9 1024H60.6C27.2 1024 0 996.8 0 963.4V617.1c0-33.4 27.2-60.6 60.6-60.6h346.2c33.4 0 60.6 27.2 60.6 60.6v346.2c0.1 33.5-27.1 60.7-60.5 60.7zM60.6 596.9c-11.1 0-20.2 9.1-20.2 20.2v346.2c0 11.1 9.1 20.2 20.2 20.2h346.2c11.1 0 20.2-9.1 20.2-20.2V617.1c0-11.1-9.1-20.2-20.2-20.2H60.6z" fill="#403F3F" p-id="8678"></path><path d="M1000.8 447.3H579.7c-1.7 0-3-1.3-3-3V23.2c0-1.7 1.3-3 3-3h421.1c1.7 0 3 1.3 3 3v421.1c0 1.6-1.4 3-3 3z" fill="#33ABE3" p-id="8679"></path><path d="M963.4 467.5H617.1c-33.4 0-60.6-27.2-60.6-60.6V60.6c0-33.4 27.2-60.6 60.6-60.6h346.2c33.4 0 60.6 27.2 60.6 60.6v346.2c0.1 33.5-27.1 60.7-60.5 60.7zM617.1 40.4c-11.1 0-20.2 9.1-20.2 20.2v346.2c0 11.1 9.1 20.2 20.2 20.2h346.2c11.1 0 20.2-9.1 20.2-20.2V60.6c0-11.1-9.1-20.2-20.2-20.2H617.1z" fill="#403F3F" p-id="8680"></path><path d="M303.9 306.9H163.6c-1.7 0-3-1.3-3-3V163.6c0-1.7 1.3-3 3-3h140.2c1.7 0 3 1.3 3 3v140.2c0.1 1.7-1.3 3.1-2.9 3.1z" fill="#FFFFFF" p-id="8681"></path><path d="M266.4 327.1H201c-33.4 0-60.6-27.2-60.6-60.6v-65.4c0-33.4 27.2-60.6 60.6-60.6h65.4c33.4 0 60.6 27.2 60.6 60.6v65.4c0.1 33.4-27.1 60.6-60.6 60.6z m-65.3-146.3c-11.1 0-20.2 9.1-20.2 20.2v65.4c0 11.1 9.1 20.2 20.2 20.2h65.4c11.1 0 20.2-9.1 20.2-20.2V201c0-11.1-9.1-20.2-20.2-20.2h-65.4z" fill="#403F3F" p-id="8682"></path><path d="M1000.8 1003.8H579.7c-1.7 0-3-1.3-3-3V579.7c0-1.7 1.3-3 3-3h421.1c1.7 0 3 1.3 3 3v421.1c0 1.6-1.4 3-3 3z" fill="#FFFFFF" p-id="8683"></path><path d="M963.4 1024H617.1c-33.4 0-60.6-27.2-60.6-60.6V617.1c0-33.4 27.2-60.6 60.6-60.6h346.2c33.4 0 60.6 27.2 60.6 60.6v346.2c0.1 33.5-27.1 60.7-60.5 60.7zM617.1 596.9c-11.1 0-20.2 9.1-20.2 20.2v346.2c0 11.1 9.1 20.2 20.2 20.2h346.2c11.1 0 20.2-9.1 20.2-20.2V617.1c0-11.1-9.1-20.2-20.2-20.2H617.1z" fill="#403F3F" p-id="8684"></path><path d="M860.4 863.4H720.1c-1.7 0-3-1.3-3-3V720.1c0-1.7 1.3-3 3-3h140.2c1.7 0 3 1.3 3 3v140.2c0.1 1.7-1.3 3.1-2.9 3.1z" fill="#FFFFFF" p-id="8685"></path><path d="M822.9 883.6h-65.4c-33.4 0-60.6-27.2-60.6-60.6v-65.4c0-33.4 27.2-60.6 60.6-60.6h65.4c33.4 0 60.6 27.2 60.6 60.6V823c0.1 33.4-27.1 60.6-60.6 60.6z m-65.3-146.3c-11.1 0-20.2 9.1-20.2 20.2v65.4c0 11.1 9.1 20.2 20.2 20.2H823c11.1 0 20.2-9.1 20.2-20.2v-65.4c0-11.1-9.1-20.2-20.2-20.2h-65.4z" fill="#403F3F" p-id="8686"></path></svg>