<?xml version="1.0" standalone="no"?><!DOCTYPE svg PUBLIC "-//W3C//DTD SVG 1.1//EN" "http://www.w3.org/Graphics/SVG/1.1/DTD/svg11.dtd"><svg t="1563870366236" class="icon" viewBox="0 0 1165 1024" version="1.1" xmlns="http://www.w3.org/2000/svg" p-id="21221" xmlns:xlink="http://www.w3.org/1999/xlink" width="36.40625" height="32"><defs><style type="text/css"></style></defs><path d="M696.635077 807.857231l-103.660308-55.138462a22.843077 22.843077 0 0 0-21.425231 0l-104.132923 54.193231a23.158154 23.158154 0 0 1-33.398153-24.418462l20.48-115.63323a22.685538 22.685538 0 0 0-6.616616-20.952616l-83.652923-81.92a23.000615 23.000615 0 0 1 12.918154-39.227077l116.263385-15.753846a22.843077 22.843077 0 0 0 17.486769-12.445538l52.460307-105.078154a22.843077 22.843077 0 0 1 41.117539 0l51.515077 105.550769a23.473231 23.473231 0 0 0 17.329231 12.760616l116.105846 17.32923a23.000615 23.000615 0 0 1 12.603077 39.384616l-84.440616 81.604923a22.685538 22.685538 0 0 0-6.774154 20.322461l19.377231 115.79077a23.000615 23.000615 0 0 1-33.555692 23.630769z" fill="#FFCB57" p-id="21222"></path><path d="M945.230769 1024H220.553846A220.553846 220.553846 0 0 1 0 803.446154V220.553846A220.553846 220.553846 0 0 1 220.553846 0h192.512a78.769231 78.769231 0 0 1 69.159385 41.117538l67.584 123.98277a15.753846 15.753846 0 0 0 13.863384 8.192H945.230769a220.553846 220.553846 0 0 1 220.553846 220.553846v409.6a220.553846 220.553846 0 0 1-220.553846 220.553846zM220.553846 63.015385A157.538462 157.538462 0 0 0 63.015385 220.553846v582.892308a157.538462 157.538462 0 0 0 157.538461 157.538461h724.676923a157.538462 157.538462 0 0 0 157.538462-157.538461V393.846154a157.538462 157.538462 0 0 0-157.538462-157.538462H563.672615a78.769231 78.769231 0 0 1-69.159384-41.117538L426.929231 71.207385a15.753846 15.753846 0 0 0-13.863385-8.192z" fill="#472D22" p-id="21223"></path><path d="M707.505231 842.043077a53.563077 53.563077 0 0 1-25.678769-7.089231L582.892308 782.651077 481.910154 834.953846a54.665846 54.665846 0 0 1-78.769231-57.816615l19.692308-111.379693-80.502154-78.76923a54.508308 54.508308 0 0 1 30.562461-92.790154l111.852308-15.753846L535.630769 376.832A53.090462 53.090462 0 0 1 584.152615 346.584615a54.350769 54.350769 0 0 1 48.679385 30.562462l49.624615 101.612308 111.69477 16.856615a54.350769 54.350769 0 0 1 29.774769 92.947692l-81.289846 78.769231 18.589538 111.379692a54.350769 54.350769 0 0 1-21.897846 53.248 54.980923 54.980923 0 0 1-31.822769 10.082462z m3.938461-62.070154zM582.892308 718.532923a54.823385 54.823385 0 0 1 25.678769 6.301539l88.379077 47.261538-15.753846-98.934154a54.193231 54.193231 0 0 1 15.753846-47.261538l71.995077-69.632-99.091693-15.753846a54.035692 54.035692 0 0 1-40.802461-29.932308l-43.953231-90.112-44.740923 89.639384a54.193231 54.193231 0 0 1-41.275077 29.617231l-99.249231 14.020923 71.522462 70.262154a54.508308 54.508308 0 0 1 15.753846 48.364308l-17.486769 98.619077L557.056 724.676923a54.508308 54.508308 0 0 1 25.836308-6.144z" fill="#472D22" p-id="21224"></path></svg>