<?xml version="1.0" standalone="no"?><!DOCTYPE svg PUBLIC "-//W3C//DTD SVG 1.1//EN" "http://www.w3.org/Graphics/SVG/1.1/DTD/svg11.dtd"><svg t="1565072940217" class="icon" viewBox="0 0 1024 1024" version="1.1" xmlns="http://www.w3.org/2000/svg" p-id="3478" xmlns:xlink="http://www.w3.org/1999/xlink" width="32" height="32"><defs><style type="text/css"></style></defs><path d="M546.133333 117.333333c27.733333 23.466667 55.466667 40.533333 83.2 49.066667-8.533333-27.733333-25.6-55.466667-49.066666-83.2l-34.133334 34.133333z" fill="#999999" p-id="3479"></path><path d="M405.333333 0L0 403.2V1024L1024 0H405.333333z m27.733334 138.666667c12.8 2.133333 25.6 6.4 36.266666 8.533333l-6.4 19.2c-12.8-4.266667-25.6-8.533333-36.266666-10.666667l6.4-17.066666z m74.666666-14.933334l12.8 12.8-89.6 89.6-12.8-12.8 89.6-89.6zM554.666667 172.8l-2.133334 19.2c-17.066667-2.133333-34.133333-4.266667-55.466666-4.266667l2.133333-17.066666c14.933333 0 34.133333 0 55.466667 2.133333z m-64 98.133333c-6.4 0-10.666667 2.133333-19.2 2.133334-2.133333-19.2-4.266667-42.666667-10.666667-68.266667l19.2-4.266667c4.266667 23.466667 8.533333 46.933333 10.666667 70.4z m-174.933334 317.866667L221.866667 682.666667c-17.066667 17.066667-36.266667 17.066667-55.466667 0l-91.733333-91.733334 14.933333-14.933333 23.466667 23.466667 106.666666-106.666667L174.933333 448l-128 128-12.8-12.8 142.933334-142.933333 83.2 83.2-14.933334 14.933333-10.666666-10.666667-106.666667 106.666667 51.2 51.2c10.666667 10.666667 21.333333 10.666667 32 0l87.466667-87.466667c10.666667-10.666667 12.8-19.2 6.4-29.866666-4.266667-8.533333-12.8-21.333333-23.466667-34.133334 6.4-2.133333 12.8-6.4 21.333333-10.666666 10.666667 14.933333 19.2 25.6 23.466667 34.133333 8.533333 19.2 6.4 34.133333-10.666667 51.2z m81.066667-196.266667c17.066667 36.266667 14.933333 85.333333-10.666667 145.066667-6.4 0-12.8-2.133333-23.466666-2.133333 29.866667-57.6 34.133333-106.666667 14.933333-142.933334L298.666667 469.333333l-12.8-12.8 78.933333-78.933333c-6.4-8.533333-19.2-21.333333-34.133333-36.266667l-46.933334 46.933334c4.266667 14.933333 8.533333 29.866667 8.533334 44.8-4.266667 0-10.666667 2.133333-19.2 2.133333-4.266667-32-12.8-61.866667-29.866667-91.733333l17.066667-8.533334c6.4 10.666667 10.666667 21.333333 14.933333 32l40.533333-40.533333-34.133333-34.133333 14.933333-14.933334c12.8 12.8 23.466667 25.6 34.133334 36.266667l66.133333-66.133333 12.8 12.8-66.133333 66.133333c14.933333 14.933333 25.6 27.733333 34.133333 36.266667l76.8-76.8 14.933333 12.8-76.8 76.8c40.533333 19.2 87.466667 12.8 138.666667-17.066667 2.133333 8.533333 2.133333 17.066667 4.266667 25.6-53.333333 21.333333-100.266667 25.6-138.666667 8.533333z m219.733333-123.733333c-14.933333 0-32-2.133333-44.8-2.133333 4.266667 27.733333 2.133333 57.6-4.266666 85.333333-6.4 0-12.8-2.133333-21.333334-2.133333 6.4-27.733333 8.533333-55.466667 4.266667-83.2h-51.2l2.133333-17.066667h46.933334c-4.266667-12.8-8.533333-27.733333-14.933334-42.666667l19.2-6.4c6.4 17.066667 10.666667 32 14.933334 46.933334H618.666667l-2.133334 21.333333z m36.266667 2.133333c-6.4 0-12.8-2.133333-21.333333 0 6.4-29.866667 6.4-55.466667 4.266666-81.066666-27.733333-8.533333-55.466667-21.333333-81.066666-42.666667 2.133333 8.533333 4.266667 14.933333 4.266666 23.466667-6.4 0-12.8-2.133333-19.2-2.133334-6.4-32-19.2-64-40.533333-96l17.066667-10.666666c8.533333 12.8 17.066667 27.733333 23.466666 40.533333L597.333333 44.8l12.8 12.8-12.8 12.8c32 38.4 51.2 72.533333 57.6 102.4 23.466667 4.266667 46.933333 2.133333 70.4-4.266667 2.133333 8.533333 2.133333 17.066667 4.266667 23.466667-25.6 4.266667-49.066667 6.4-72.533333 2.133333 2.133333 23.466667 2.133333 49.066667-4.266667 76.8z" fill="#999999" p-id="3480"></path></svg>