<?xml version="1.0" standalone="no"?><!DOCTYPE svg PUBLIC "-//W3C//DTD SVG 1.1//EN" "http://www.w3.org/Graphics/SVG/1.1/DTD/svg11.dtd"><svg t="1563935423923" class="icon" viewBox="0 0 1024 1024" version="1.1" xmlns="http://www.w3.org/2000/svg" p-id="4689" xmlns:xlink="http://www.w3.org/1999/xlink" width="32" height="32"><defs><style type="text/css"></style></defs><path d="M424.494545 902.237091H331.403636v-19.642182c-7.726545-2.048-15.266909-4.468364-22.807272-7.168-4.840727-1.768727-9.681455-3.630545-14.429091-5.678545v41.797818c0 15.36 12.567273 27.927273 27.927272 27.927273h111.709091c15.36 0 27.927273-12.567273 27.927273-27.927273v-18.618182h-37.236364v9.309091zM687.010909 902.237091H593.92v-9.309091h-37.236364v18.618182c0 15.36 12.567273 27.927273 27.927273 27.927273h111.709091c15.36 0 27.927273-12.567273 27.927273-27.927273v-35.002182c-12.101818 4.468364-24.482909 8.098909-37.236364 10.798545v14.894546zM700.788364 845.265455c-0.465455 0.093091-0.930909 0.279273-1.396364 0.465454 0.465455-0.186182 0.930909-0.279273 1.396364-0.465454z" fill="#353535" p-id="4690"></path><path d="M835.397818 428.497455c-5.306182 0-10.426182-2.327273-13.963636-6.237091 22.807273 40.96 35.002182 87.319273 35.002182 135.540363v74.472728c0 59.671273-23.272727 115.805091-65.442909 157.975272-25.693091 25.693091-56.599273 44.311273-90.205091 55.016728-0.465455 0.186182-0.930909 0.279273-1.396364 0.465454-21.224727 6.609455-43.566545 9.960727-66.373818 9.960727H409.6c-30.347636 0-60.043636-5.12-88.343273-15.36-27.368727-9.867636-52.689455-24.110545-75.403636-42.542545-45.521455-36.770909-77.637818-88.250182-90.484364-144.942546-3.537455-15.453091-16.942545-26.158545-32.674909-26.158545H65.163636v-91.229091h50.269091c18.525091 0 33.512727-14.987636 33.512728-33.512727 0-42.728727 12.101818-84.340364 35.002181-120.180364 17.408-27.182545 40.401455-50.269091 67.304728-67.584-0.093091-10.612364-1.396364-23.738182-5.306182-37.888-0.186182-0.558545-0.372364-1.210182-0.558546-1.954909-37.608727 20.945455-69.445818 50.920727-92.718545 87.412364-26.065455 40.773818-40.215273 87.970909-40.866909 136.564363H65.163636c-20.573091 0-37.236364 16.663273-37.236363 37.236364v91.229091c0 20.573091 16.663273 37.236364 37.236363 37.236364h54.551273c15.080727 63.674182 51.479273 121.483636 102.679273 162.90909 21.876364 17.687273 45.986909 32.116364 71.773091 42.91491 4.747636 1.954909 9.588364 3.909818 14.429091 5.678545 7.540364 2.699636 15.173818 5.12 22.807272 7.168 25.320727 6.888727 51.572364 10.333091 78.196364 10.333091h223.418182c18.338909 0 36.491636-1.861818 53.992727-5.585455 12.753455-2.699636 25.134545-6.237091 37.236364-10.798545 34.536727-12.846545 66.187636-33.140364 92.997818-59.950546 49.245091-49.245091 76.334545-114.688 76.334545-184.32v-74.472727c0-42.728727-8.378182-84.154182-24.855272-123.159273-2.234182-5.306182-4.561455-10.426182-7.074909-15.546181-6.144 2.885818-12.753455 5.585455-19.642182 8.285091-2.141091 0.651636-4.468364 1.024-6.609455 1.024z" fill="#353535" p-id="4691"></path><path d="M372.363636 278.528h204.8c74.565818 0 144.756364 29.044364 197.445819 81.826909 16.849455 16.849455 31.278545 35.467636 43.10109 55.389091-3.165091-9.402182 1.675636-19.642182 10.984728-23.272727 5.306182-2.048 10.146909-4.002909 14.615272-6.050909-12.194909-18.804364-26.344727-36.398545-42.356363-52.503273-29.044364-29.044364-62.929455-51.851636-100.631273-67.863273-39.005091-16.477091-80.523636-24.855273-123.159273-24.855273H372.363636c-13.591273 0-27.275636 1.117091-40.680727 3.165091 12.381091 12.660364 21.038545 24.482909 26.996364 34.443637 4.561455-0.093091 9.122909-0.279273 13.684363-0.279273z" fill="#353535" p-id="4692"></path><path d="M238.312727 454.656a27.927273 23.272727 90 1 0 46.545455 0 27.927273 23.272727 90 1 0-46.545455 0Z" fill="#353535" p-id="4693"></path><path d="M251.252364 314.181818c0.093091 8.098909-0.558545 14.801455-1.210182 19.362909-1.117091 8.378182 1.489455 16.663273 7.261091 22.807273 5.306182 5.678545 12.660364 8.843636 20.386909 8.843636 0.651636 0 1.303273 0 1.954909-0.093091 9.495273-0.651636 24.203636-2.792727 40.308364-9.122909 19.083636-7.540364 33.140364-14.987636 41.704727-22.248727 8.750545-7.354182 12.101818-19.083636 8.564363-29.975273-1.768727-5.306182-5.12-14.056727-11.636363-24.855272-6.050909-10.053818-14.708364-21.876364-26.996364-34.443637-8.285091-8.471273-18.245818-17.314909-30.161454-26.158545-20.666182-15.36-39.749818-23.738182-52.130909-28.020364-8.564364-2.978909-17.966545-0.465455-24.017455 6.237091-6.050909 6.795636-7.354182 16.384-3.444364 24.576 11.822545 24.389818 20.386909 43.938909 23.365819 53.061818 0.186182 0.744727 0.465455 1.396364 0.558545 1.954909 4.096 14.336 5.399273 27.461818 5.492364 38.074182z m28.020363-66.001454c9.774545 7.261091 40.866909 31.930182 53.248 60.788363-4.747636 2.885818-12.846545 7.168-26.158545 12.381091-6.609455 2.606545-12.753455 4.189091-18.245818 5.213091 1.024-15.918545 0.186182-36.864-6.330182-60.322909-1.582545-5.492364-4.561455-13.405091-8.285091-22.155636 1.954909 1.303273 3.816727 2.699636 5.771636 4.096z" fill="#353535" p-id="4694"></path><path d="M382.603636 214.853818h102.4c10.24 0 18.618182-8.378182 18.618182-18.618182s-8.378182-18.618182-18.618182-18.618181H382.603636c-10.24 0-18.618182 8.378182-18.618181 18.618181s8.285091 18.618182 18.618181 18.618182zM382.603636 168.308364h102.4c10.24 0 18.618182-8.378182 18.618182-18.618182s-8.378182-18.618182-18.618182-18.618182H382.603636c-10.24 0-18.618182 8.378182-18.618181 18.618182s8.285091 18.618182 18.618181 18.618182zM531.549091 215.784727h102.4c10.24 0 18.618182-8.378182 18.618182-18.618182s-8.378182-18.618182-18.618182-18.618181H531.549091c-10.24 0-18.618182 8.378182-18.618182 18.618181s8.285091 18.618182 18.618182 18.618182zM531.549091 169.239273h102.4c10.24 0 18.618182-8.378182 18.618182-18.618182s-8.378182-18.618182-18.618182-18.618182H531.549091c-10.24 0-18.618182 8.378182-18.618182 18.618182s8.285091 18.618182 18.618182 18.618182zM382.603636 121.762909h102.4c10.24 0 18.618182-8.378182 18.618182-18.618182s-8.378182-18.618182-18.618182-18.618182H382.603636c-10.24 0-18.618182 8.378182-18.618181 18.618182s8.285091 18.618182 18.618181 18.618182z" fill="#FEC500" p-id="4695"></path><path d="M986.856727 283.927273c-8.843636-5.12-20.293818-2.141091-25.413818 6.795636-7.726545 13.218909-18.804364 28.672-27.834182 38.074182-4.189091-20.293818-20.200727-34.350545-35.374545-38.167273-17.780364-4.468364-36.677818 3.537455-46.917818 19.735273-10.24 16.290909-9.216 36.026182 2.606545 50.455273 4.468364 5.399273 9.309091 9.495273 14.336 12.567272-6.516364 4.096-14.708364 8.471273-24.855273 13.032728-4.468364 1.954909-9.309091 4.002909-14.615272 6.050909-9.309091 3.537455-14.149818 13.870545-10.984728 23.272727l0.279273 0.837818c0.837818 2.141091 2.048 4.096 3.444364 5.678546 3.537455 4.002909 8.657455 6.237091 13.963636 6.237091 2.234182 0 4.468364-0.372364 6.702546-1.210182 6.888727-2.699636 13.498182-5.399273 19.642181-8.285091 22.341818-10.24 39.749818-21.690182 51.851637-34.164364 2.420364-2.420364 4.561455-4.933818 6.423272-7.261091 6.702545-1.861818 12.474182-4.002909 16.384-5.585454 12.101818-4.654545 25.227636-16.663273 39.936-36.584728 9.867636-13.312 16.942545-25.506909 17.221819-26.065454 5.12-8.843636 2.048-20.200727-6.795637-25.413818z m-90.205091 59.857454c-7.726545 0-11.264-3.072-14.056727-6.516363-2.048-2.420364-1.024-5.12 0.093091-6.981819 0.279273-0.372364 2.420364-3.630545 5.399273-3.630545 0.372364 0 0.651636 0 1.024 0.093091 2.234182 0.558545 7.726545 4.654545 8.098909 11.450182 0.186182 1.861818 0 3.630545-0.558546 5.585454z" fill="#353535" p-id="4696"></path></svg>