<?xml version="1.0" standalone="no"?><!DOCTYPE svg PUBLIC "-//W3C//DTD SVG 1.1//EN" "http://www.w3.org/Graphics/SVG/1.1/DTD/svg11.dtd"><svg t="1565053029482" class="icon" viewBox="0 0 1091 1024" version="1.1" xmlns="http://www.w3.org/2000/svg" p-id="4698" xmlns:xlink="http://www.w3.org/1999/xlink" width="34.09375" height="32"><defs><style type="text/css"></style></defs><path d="M544.25599999 31.57333333a266.410667 266.410667 0 0 0-266.410667 266.410667c0 147.114667 266.410667 513.877333 266.410667 513.877333s266.410667-366.762667 266.410667-513.877333A266.410667 266.410667 0 0 0 544.25599999 31.57333333z" fill="#BBDCFF" p-id="4699"></path><path d="M544.25599999 297.81333333m-123.904 0a123.904 123.904 0 1 0 247.808 0 123.904 123.904 0 1 0-247.808 0Z" fill="#FFD300" p-id="4700"></path><path d="M1024.51199999 807.25333333c0 97.962667-210.944 174.592-480.256 174.592S63.99999999 905.55733333 63.99999999 807.25333333c0-53.248 60.245333-100.864 170.666667-133.973333a10.24 10.24 0 0 1 5.802666 19.626666c-97.962667 29.013333-155.989333 72.533333-155.989333 114.346667 0 83.626667 210.432 153.6 459.776 153.6s459.776-70.485333 459.776-153.6c0-42.325333-58.368-85.333333-156.16-114.688a10.069333 10.069333 0 0 1-6.826667-12.629333 10.410667 10.410667 0 0 1 12.8-6.997334c110.08 33.621333 170.666667 81.237333 170.666667 134.314667z m-552.448-81.92c-79.36-119.466667-204.8-324.266667-204.8-426.666667a276.650667 276.650667 0 0 1 553.301333 0c0 103.594667-125.098667 308.053333-204.8 426.666667 85.333333 10.24 156.672 38.4 156.672 82.261333 0 56.32-117.930667 86.698667-228.864 86.698667s-228.181333-30.378667-228.181333-87.04c0-43.52 72.192-71.68 156.672-81.92z m131.584 19.114667c-27.989333 41.472-48.298667 69.461333-51.2 73.386666l-8.362667 11.434667-8.362666-11.434667c-2.730667-3.925333-23.04-31.914667-51.2-73.386666-89.941333 9.045333-148.992 37.376-148.992 63.146666 0 31.402667 85.333333 66.218667 208.384 66.218667s208.384-34.133333 208.384-66.218667c0.341333-25.770667-58.709333-54.101333-148.650667-63.146666zM288.25599999 297.98400033c0 127.658667 211.285333 432.810667 256 496.298666 44.885333-63.488 256-368.64 256-496.298666a256 256 0 1 0-512 0z m256 133.802666A134.144 134.144 0 1 1 678.39999999 297.64266633a134.314667 134.314667 0 0 1-134.144 134.144z m0-20.48a113.664 113.664 0 1 0-113.664-113.664 113.834667 113.834667 0 0 0 113.664 113.834667z" fill="#3989FF" p-id="4701"></path></svg>