<?xml version="1.0" standalone="no"?><!DOCTYPE svg PUBLIC "-//W3C//DTD SVG 1.1//EN" "http://www.w3.org/Graphics/SVG/1.1/DTD/svg11.dtd"><svg t="1564823581357" class="icon" viewBox="0 0 1024 1024" version="1.1" xmlns="http://www.w3.org/2000/svg" p-id="6781" xmlns:xlink="http://www.w3.org/1999/xlink" width="32" height="32"><defs><style type="text/css"></style></defs><path d="M519.766881 523.523883m-238.280675 0a238.280675 238.280675 0 1 0 476.561349 0 238.280675 238.280675 0 1 0-476.561349 0Z" fill="#E9EAEB" p-id="6782"></path><path d="M759.275806 677.849996c-42.410781-37.714528-115.166584-65.025048-171.449375-65.025047a405.756297 405.756297 0 0 0-62.135046 65.386298c-31.862273-10.909758-66.542299-45.662033-97.248571-83.015311s-57.800042-78.102307-62.640796-111.481832a405.756297 405.756297 0 0 0 76.223806-48.335285c11.487758-55.12679-1.589501-131.856347-30.345022-180.625132-33.379524-5.563254-114.010584-3.973753-172.244127 22.542016-23.914768 71.021802-31.862273 231.200169 101.150074 399.542793C480.101602 840.268115 640.857969 839.979115 715.275524 830.225358c37.064277-52.020038 43.350032-118.490087 44.000282-152.375362z" fill="#A3D4FF" p-id="6783"></path><path d="M662.460735 850.672123c-90.312566 0-220.362661-28.900021-334.806745-162.562619-126.654343-160.178367-135.396599-324.185987-104.473577-416.015805l2.384252-7.225005 6.719255-3.034502c60.184294-27.38277 142.693855-30.417272 182.070133-23.842518l7.803006 1.300501 4.046003 6.863755c31.067523 52.742539 44.650533 133.879348 32.368024 192.835392l-1.156001 5.418753-4.118253 3.757003a419.050307 419.050307 0 0 1-68.1318 45.084033c7.225005 23.625767 25.937769 54.25979 56.355041 91.251817S498.525365 646.204473 520.200381 657.475482a419.050307 419.050307 0 0 1 57.438792-57.800043l4.479503-3.323502h5.563254c60.184294-0.578 137.275101 28.322021 183.009384 68.9988l5.924505 5.274254v7.947506c-1.300501 45.445283-10.548508 110.398081-47.323785 161.767868l-4.335003 5.996755-7.225005 0.939251a423.31306 423.31306 0 0 1-55.271291 3.395752z m-409.2243-560.660411C242.543428 328.15974 210.970155 485.664856 354.025259 666.506738c125.642842 146.956608 271.226699 156.638115 351.424258 147.823608 26.443519-40.53228 34.607775-90.673816 36.558526-128.749594a270.648698 270.648698 0 0 0-148.257108-55.27129 413.053553 413.053553 0 0 0-54.11529 57.800042l-7.225005 10.548508-12.210259-3.973753c-30.272772-10.331758-64.519297-39.231779-104.907077-88.289565s-62.135046-88.361815-66.470049-120.007338L346.800254 473.671347l11.776759-5.129754a413.559303 413.559303 0 0 0 67.698299-41.905031 270.720948 270.720948 0 0 0-25.504268-155.915614C368.47527 267.325196 303.450222 269.781698 253.236435 290.011712z" fill="#2A5082" p-id="6784"></path><path d="M877.910393 223.975164c-7.875256-9.826007-14.450011-17.701263-21.241516-24.854018A468.758343 468.758343 0 0 0 195.075143 172.099626l-23.120017-24.998518a502.860368 502.860368 0 0 1 709.78452 28.900021c7.225005 7.730756 14.450011 16.256262 22.758766 26.660269zM362.912016 995.822479A502.210118 502.210118 0 0 1 44.506033 333.722994l31.717773 12.354759a468.180343 468.180343 0 0 0 296.875467 617.232203zM588.259931 1012.945742l-5.129754-33.668525a468.252593 468.252593 0 0 0 386.104283-565.717914l33.235024-7.225005a502.282368 502.282368 0 0 1-414.209553 606.900444z" fill="#BCC0C4" p-id="6785"></path><path d="M925.956678 560.22691l-33.885275-3.901503c1.083751-10.115007 1.734001-18.423763 2.095252-26.299019A377.795527 377.795527 0 0 0 531.97714 137.275101l1.372751-34.029775a411.825302 411.825302 0 0 1 394.846539 428.226063 454.958583 454.958583 0 0 1-2.239752 28.755521z" fill="#BCC0C4" p-id="6786"></path></svg>