<?xml version="1.0" standalone="no"?><!DOCTYPE svg PUBLIC "-//W3C//DTD SVG 1.1//EN" "http://www.w3.org/Graphics/SVG/1.1/DTD/svg11.dtd"><svg t="1563870195097" class="icon" viewBox="0 0 1024 1024" version="1.1" xmlns="http://www.w3.org/2000/svg" p-id="19805" xmlns:xlink="http://www.w3.org/1999/xlink" width="32" height="32"><defs><style type="text/css"></style></defs><path d="M762.91584 953.088H200.84736v-44.44672h562.06848c17.3568 0 36.76672-32.2816 36.76672-75.48416v-320.4608h44.08832v320.4608c0.00512 67.2512-35.51232 119.93088-80.85504 119.93088z" fill="#FFE8E8" p-id="19806"></path><path d="M782.45888 979.21024H246.66112c-49.76128 0-88.74496-54.6048-88.74496-124.3136v-225.58208c-0.03072-32.93184-0.04096-59.72992-0.04096-78.30016l0.00512-21.43744c0-1.34144 0-2.65728 0.0256-3.9424l-0.00512-3.25632h0.12288c0.45056-7.68512 2.38592-14.29504 10.752-19.12832l21.77536-0.01024c8.52992 4.92032 10.37824 12.06784 10.78784 19.14368l0.1024 0.00512-0.00512 2.6112c0.02048 1.0752 0.02048 2.14528 0.02048 3.2l0.00512 326.69184c0 47.60064 23.82336 80.77312 45.20448 80.77312h535.79776c21.38112 0 45.20448-33.17248 45.20448-80.77312V649.8304c-0.0512-35.47136-0.06656-66.46272-0.06144-88.59648l0.01536-26.0096c0-1.89952 0.00512-3.70176 0.04096-5.42208l-0.01024-3.59936h0.14336c0.512-8.36096 2.53952-14.46912 10.71616-19.2l21.78048-0.01536c8.70912 5.02272 10.46016 12.57984 10.81344 19.2256l0.0768 0.00512-0.01024 1.73568c0.0256 1.04448 0.03072 2.05824 0.03072 3.03104l0.00512 323.90656c-0.00512 69.71392-38.98368 124.31872-88.75008 124.31872z" p-id="19807"></path><path d="M513.4336 558.34112c-76.05248 0-139.66848-44.6208-168.45312-85.80608-26.46528 25.36448-63.42656 56.6528-136.832 58.62912-63.81056 1.664-124.22144-17.34656-157.52192-49.76128-17.43872-16.97792-26.65984-36.77184-26.65984-57.2416 0-16.85504 6.43584-29.7472 12.66688-42.2144l1.6896-3.39456a237.2096 237.2096 0 0 0 5.44768-12.04224c0.7936-1.84832 1.59232-3.69664 2.432-5.59616l115.92192-261.71904C176.4352 66.8672 209.44896 45.9776 246.2208 45.9776h533.21728c36.77184 0 69.7856 20.8896 84.10624 53.21728l115.9168 261.71904c0.96768 2.18624 2.60096 5.06368 4.1728 7.84896 0.98816 1.74592 1.95072 3.44064 2.79552 5.02272v0.01024c1.52064 2.84672 3.05664 5.53472 4.53632 8.12544 6.65088 11.65312 14.18752 24.86272 14.18752 42.23488 0 20.7104-9.344 40.72448-27.02336 57.87648-33.18272 32.19456-92.76416 50.94912-155.36128 49.1264-56.27904-1.70496-103.30112-21.67808-143.08352-60.91264-33.8176 43.7504-87.51616 88.09472-166.25152 88.09472zM349.44512 417.88928c1.92 0 3.85536 0.22016 5.76 0.6656a25.68192 25.68192 0 0 1 17.96608 15.6672c11.35104 28.92288 67.92704 80.57856 140.2624 80.57856 70.81984 0 117.0688-47.54432 143.40096-87.43424a24.9088 24.9088 0 0 1 19.39968-11.26912 25.51296 25.51296 0 0 1 20.8128 8.90368c34.57024 40.60672 76.11904 61.09184 127.03744 62.63296 50.49856 1.48992 99.072-12.93312 123.71968-36.84864 6.2976-6.10816 13.80352-15.68768 13.80352-26.62912 0-5.56032-2.90304-10.91072-8.46336-20.6592-1.67424-2.93888-3.40992-5.98528-5.13536-9.216-0.68096-1.28-1.4592-2.65216-2.25792-4.06016-1.9968-3.52256-4.25984-7.52128-6.0928-11.66848l-115.92192-261.72416c-7.35232-16.5888-24.73472-27.31008-44.29312-27.31008H246.2208c-19.5584 0-36.94592 10.72128-44.29312 27.31008l-115.9168 261.71904c-0.77312 1.75104-1.50528 3.456-2.24256 5.16608a277.88288 277.88288 0 0 1-6.41536 14.14144l-1.7664 3.54816c-5.30432 10.624-8.07424 16.4608-8.07424 22.7584 0 10.67008 7.33696 20.05504 13.4912 26.04032 24.79616 24.13568 74.28608 38.88128 125.9776 37.43744 61.6192-1.65888 88.99072-28.20096 113.14176-51.61984 4.1472-4.0192 8.12544-7.87968 12.06784-11.43808a25.73824 25.73824 0 0 1 17.2544-6.69184z" p-id="19808"></path><path d="M755.2 283.15648h-481.28a25.6 25.6 0 0 1 0-51.2h481.28a25.6 25.6 0 0 1 0 51.2z" fill="#FB2F19" p-id="19809"></path></svg>