<?xml version="1.0" standalone="no"?><!DOCTYPE svg PUBLIC "-//W3C//DTD SVG 1.1//EN" "http://www.w3.org/Graphics/SVG/1.1/DTD/svg11.dtd"><svg t="1564456289535" class="icon" viewBox="0 0 1024 1024" version="1.1" xmlns="http://www.w3.org/2000/svg" p-id="2218" xmlns:xlink="http://www.w3.org/1999/xlink" width="32" height="32"><defs><style type="text/css"></style></defs><path d="M434.176 506.368c0-75.264 52.224-138.752 122.88-155.136v-16.896c0-11.776 5.632-22.528 14.336-29.184-10.752-5.12-22.016-9.216-33.28-12.288v-16.896c0-20.48-16.384-36.864-36.864-36.864s-36.864 16.384-36.864 36.864v16.896c-70.656 16.896-122.88 79.872-122.88 155.136v135.168l-49.152 49.152v24.576h126.464l15.872-15.872V506.368zM501.248 726.528c11.776 0 22.016-4.608 30.208-11.776H470.528c8.192 7.68 18.944 11.776 30.72 11.776z" fill="#FFE9B4" p-id="2219"></path><path d="M753.664 641.536V506.368c0-75.264-52.224-138.752-122.88-155.136v-16.896c0-20.48-16.384-36.864-36.864-36.864-8.704 0-16.384 3.072-22.528 7.68-8.704 6.656-14.336 17.408-14.336 29.184v16.896c-70.656 16.896-122.88 79.872-122.88 155.136v135.168l-15.872 15.872-33.28 33.28v24.576h417.792v-24.576l-49.152-49.152zM593.92 784.896c25.6 0 46.08-20.48 46.08-46.08h-92.16c0 25.088 20.48 46.08 46.08 46.08z" fill="#FFBA00" p-id="2220"></path><path d="M333.312 297.472h-29.696v-29.696c0-6.656-5.12-11.776-11.776-11.776s-11.776 5.12-11.776 11.776v29.696H250.88c-6.656 0-11.776 5.12-11.776 11.776 0 6.656 5.12 11.776 11.776 11.776h29.696v29.696c0 6.656 5.12 11.776 11.776 11.776s11.776-5.12 11.776-11.776v-29.696h29.696c6.656 0 11.776-5.12 11.776-11.776-0.512-6.656-6.144-11.776-12.288-11.776zM916.48 496.64c0 20.48-16.896 30.72-29.184 37.888-12.288 7.168-17.92 11.264-17.92 18.432 0 6.656 5.12 10.752 17.408 18.432s28.672 17.92 28.672 38.4-16.896 30.72-29.184 37.888c-12.288 7.168-17.92 11.264-17.92 18.432 0 6.656-5.12 11.776-11.776 11.264-6.656 0-11.776-5.12-11.264-11.776 0-20.48 16.896-30.72 29.184-37.888 12.288-7.168 17.92-11.264 17.92-18.432 0-6.656-5.12-10.752-17.408-18.432s-28.672-17.92-28.672-38.4 16.896-30.72 29.184-37.888c12.288-7.168 17.92-11.264 17.92-18.432s-5.12-10.752-17.408-18.432-28.672-17.92-28.672-38.4c0-6.656 5.12-11.776 11.776-11.264 6.656 0 11.776 5.12 11.264 11.776 0 7.168 5.12 10.752 17.408 18.432 12.288 7.168 29.184 17.408 28.672 38.4z" fill="#FFC879" p-id="2221"></path><path d="M283.648 771.072l47.616-14.336-61.952-32.768z" fill="#FFF7EC" p-id="2222"></path><path d="M802.816 361.472m-32.768 0a32.768 32.768 0 1 0 65.536 0 32.768 32.768 0 1 0-65.536 0Z" fill="#FFF7EC" p-id="2223"></path><path d="M163.328 606.72c-30.72 0-56.32 25.088-56.32 56.32 0 30.72 25.088 56.32 56.32 56.32s56.32-25.088 56.32-56.32-25.088-56.32-56.32-56.32z m0 89.088c-17.92 0-32.768-14.848-32.768-32.768 0-17.92 14.848-32.768 32.768-32.768 17.92 0 32.768 14.848 32.768 32.768 0 17.92-14.336 32.768-32.768 32.768z" fill="#FFC879" p-id="2224"></path></svg>