<?xml version="1.0" standalone="no"?><!DOCTYPE svg PUBLIC "-//W3C//DTD SVG 1.1//EN" "http://www.w3.org/Graphics/SVG/1.1/DTD/svg11.dtd"><svg t="1563935494895" class="icon" viewBox="0 0 1024 1024" version="1.1" xmlns="http://www.w3.org/2000/svg" p-id="5500" xmlns:xlink="http://www.w3.org/1999/xlink" width="32" height="32"><defs><style type="text/css"></style></defs><path d="M850.432 355.328c-25.6-27.136-52.736-51.2-80.384-71.68-4.096-3.072-7.168-5.12-10.752-8.192 50.688-17.408 86.528-59.392 86.528-108.544 0-66.56-62.976-117.76-138.24-117.76-17.408 0-33.28 3.072-47.616 8.704-6.656 2.56-11.776 5.12-15.872 7.68-2.56 1.024-8.192 0-9.728-2.048-5.632-8.704-14.336-19.456-27.136-30.208-23.552-20.48-52.224-33.28-84.48-33.28-32.256 0-60.416 12.8-84.48 33.792-12.288 10.752-20.48 20.992-26.624 29.696-2.048 2.56-7.68 4.096-9.728 3.072-4.096-2.56-9.216-5.12-16.384-7.68-14.336-5.632-30.208-8.704-47.616-8.704-75.264 0-138.24 50.688-138.24 117.76 0 42.496 26.112 78.848 65.536 99.328L252.928 276.48c-27.136 20.48-54.784 44.032-80.384 71.168-74.24 78.336-119.296 167.936-119.296 267.776 0 275.968 205.824 407.552 453.632 407.552 103.936 0 205.312-20.48 287.744-69.632 111.616-66.56 175.104-178.176 175.104-337.92 0.512-94.208-45.056-181.248-119.296-260.096z m-343.04 626.176c-228.352 0-410.624-116.224-410.624-361.984 0-85.504 37.376-165.376 104.96-236.544 24.064-25.6 50.176-52.224 75.776-71.68 9.216-6.656 17.408-12.288 24.576-17.408 4.096-3.072 7.168-4.608 8.704-5.632 24.576-15.872 27.648-43.52-7.68-61.44v-0.512h-0.512l-1.024-0.512c-1.536-0.512-1.536-0.512-2.048-0.512-0.512 0-0.512 0-1.024-0.512l-0.512-0.512-3.584-1.536c-31.232-9.216-44.032-41.472-44.032-72.192S285.184 92.16 330.752 92.16c9.728 0 18.944 2.048 26.624 5.12 4.608 1.536 7.168 3.072 7.68 3.584l4.096 2.048c29.184 14.336 66.56 5.12 87.552-19.456l2.56-3.584c2.56-4.096 8.704-12.288 17.92-19.968C491.52 48.128 506.88 40.96 523.264 40.96s32.256 7.168 46.08 19.456c9.216 7.68 15.36 15.872 17.92 19.968l2.048 3.072c20.48 25.6 57.856 33.792 87.04 20.48l4.608-2.56c0.512-0.512 3.584-2.048 7.68-3.584 8.192-3.072 16.896-5.12 26.624-5.12 45.568 0 77.312 28.16 80.384 58.368 3.072 30.208-14.848 62.464-46.08 71.68l-4.608 1.536c-9.216 4.096-14.848 6.144-17.408 6.656-45.056 13.824-34.304 51.712-11.776 68.096 3.584 2.048 7.168 4.608 10.24 6.656 7.68 5.12 15.872 11.264 25.088 17.92 26.112 19.968 48.64 43.52 73.216 69.12 67.584 71.168 101.888 147.456 101.888 226.304 1.024 258.56-173.056 362.496-418.816 362.496z" fill="#474747" p-id="5501"></path><path d="M640 596.992c14.336 0 25.6-11.776 25.6-26.112s-11.264-26.112-25.6-26.112h-104.448l97.28-99.328c10.24-10.24 10.24-26.624 0-36.864s-26.112-10.24-36.352 0L512 494.592 427.52 408.576c-9.728-10.24-25.6-10.24-35.84-0.512l-0.512 0.512c-10.24 10.24-10.24 26.624 0 36.864l97.28 99.328H384c-14.336 0-25.6 11.776-25.6 26.112s11.264 26.112 25.6 26.112h102.4v26.112H384c-14.336 0-25.6 11.776-25.6 26.112s11.264 26.112 25.6 26.112h102.4v75.264c0 11.264 11.264 19.968 25.6 19.968s25.6-8.704 25.6-19.968V675.84h102.4c14.336 0 25.6-11.776 25.6-26.112s-11.264-26.112-25.6-26.112h-102.4v-26.112h102.4v-0.512z" fill="#FF847B" p-id="5502"></path></svg>